<?xml version="1.0" standalone="no"?>
<!DOCTYPE svg PUBLIC "-//W3C//DTD SVG 20010904//EN"
 "http://www.w3.org/TR/2001/REC-SVG-20010904/DTD/svg10.dtd">
<svg version="1.0" xmlns="http://www.w3.org/2000/svg"
 width="926.000000pt" height="1280.000000pt" viewBox="0 0 926.000000 1280.000000"
 preserveAspectRatio="xMidYMid meet">
<g transform="translate(0.000000,1280.000000) scale(0.100000,-0.100000)"
fill="#000000" stroke="none">
<path d="M4759 12770 c-218 -79 -431 -309 -507 -550 -27 -83 -36 -138 -68
-385 -27 -216 -45 -309 -69 -356 -9 -16 -13 -34 -9 -40 3 -6 -8 -28 -25 -50
-29 -35 -30 -39 -12 -39 11 0 36 14 54 30 19 17 37 30 41 30 16 0 3 -57 -19
-86 -18 -23 -24 -41 -20 -57 4 -13 -5 -56 -20 -101 -26 -76 -27 -102 -3 -78 7
7 20 12 30 12 23 0 23 -28 2 -74 -16 -33 -16 -35 10 -81 14 -26 26 -54 26 -61
0 -7 -19 -18 -42 -24 -24 -6 -92 -26 -153 -44 -60 -19 -137 -39 -169 -46 l-60
-12 24 -18 c13 -9 20 -22 16 -29 -9 -14 -6 -14 39 5 20 8 40 13 43 10 3 -3
-26 -36 -65 -73 -65 -64 -73 -76 -123 -196 -68 -163 -117 -246 -227 -382 -261
-322 -288 -441 -193 -825 33 -132 89 -310 183 -585 53 -154 69 -217 85 -331
23 -156 62 -290 93 -316 10 -9 49 -26 85 -38 93 -31 113 -52 123 -125 7 -45 5
-67 -5 -87 -8 -15 -14 -34 -14 -42 0 -8 -8 -20 -18 -25 -23 -12 -50 3 -62 35
-6 14 -18 24 -30 24 -16 0 -20 -7 -20 -32 0 -50 -19 -108 -35 -109 -8 -1 -19
-3 -25 -4 -5 -1 -14 -3 -19 -4 -15 -2 -42 -70 -52 -133 -15 -93 -44 -148 -108
-211 -38 -37 -62 -70 -70 -96 -14 -47 -19 -51 -85 -66 -56 -13 -52 -4 -75
-144 -6 -35 -17 -71 -26 -81 -8 -9 -15 -22 -15 -28 0 -22 32 -42 70 -42 52 0
68 -8 84 -39 11 -20 16 -127 7 -149 -1 -1 -15 5 -33 14 -44 23 -125 101 -225
217 -120 138 -164 155 -245 94 -58 -44 -85 -87 -98 -155 -21 -110 -36 -119
-140 -88 -72 21 -102 6 -181 -92 -32 -41 -64 -91 -70 -112 -10 -34 -8 -44 21
-108 18 -39 29 -76 25 -82 -4 -7 -22 -18 -40 -26 -38 -16 -60 -57 -80 -149
-23 -111 -5 -151 107 -242 77 -62 93 -96 68 -143 -10 -19 -17 -20 -88 -14 -85
7 -132 -5 -132 -33 0 -22 -60 -55 -150 -82 -129 -40 -150 -87 -45 -101 60 -8
60 -38 1 -82 -48 -35 -66 -70 -49 -97 14 -23 132 -81 178 -87 60 -8 94 -24
101 -46 3 -11 3 -22 -1 -26 -3 -3 -59 -9 -124 -12 -168 -9 -202 -35 -162 -126
30 -68 28 -75 -20 -72 -41 2 -69 -17 -81 -54 -3 -9 -26 -2 -72 21 -124 61
-173 38 -101 -48 19 -24 35 -47 35 -53 0 -6 -32 -7 -88 -3 -74 6 -90 5 -101
-9 -31 -37 16 -166 88 -248 45 -51 50 -81 14 -86 -14 -2 -41 15 -84 54 -87 77
-131 105 -169 106 -38 1 -65 -28 -75 -78 -9 -51 -27 -59 -58 -24 -15 17 -36
30 -46 30 -24 0 -164 -91 -185 -121 -9 -13 -16 -40 -16 -60 0 -43 -26 -80 -81
-114 -42 -27 -59 -68 -59 -142 0 -49 16 -68 64 -77 46 -9 76 -47 76 -98 0 -22
5 -48 10 -58 8 -16 3 -28 -25 -66 -84 -110 -190 -315 -183 -353 2 -10 17 -18
43 -21 34 -4 40 -9 43 -32 2 -18 -4 -31 -19 -42 -22 -15 -22 -16 -3 -37 15
-17 27 -20 61 -16 46 5 69 -7 75 -38 2 -13 17 -24 46 -33 36 -12 42 -18 42
-42 0 -15 3 -42 6 -59 6 -30 6 -31 -31 -31 -32 0 -44 7 -79 45 -50 54 -85 58
-162 20 -96 -48 -108 -76 -89 -202 6 -42 4 -58 -9 -78 -23 -36 -56 -32 -128
15 -49 32 -71 40 -108 40 -57 0 -84 -18 -115 -79 -28 -57 -44 -65 -95 -51 -54
15 -83 -2 -130 -73 -46 -68 -48 -80 -20 -122 28 -42 26 -73 -4 -85 -40 -15
-104 -79 -116 -115 -16 -49 6 -87 67 -115 151 -71 196 -96 218 -122 47 -56 44
-75 -35 -217 -36 -65 -40 -129 -10 -179 22 -35 86 -80 196 -135 40 -20 81 -48
92 -62 l20 -25 -24 -75 c-13 -42 -24 -85 -24 -95 0 -29 35 -25 58 7 13 18 24
24 37 19 14 -5 17 -14 12 -47 -7 -54 0 -69 32 -69 36 0 89 33 137 87 40 46 64
51 64 14 0 -9 -16 -41 -35 -71 -56 -89 -57 -150 -1 -150 12 0 31 -6 41 -14 19
-14 19 -15 2 -33 -9 -11 -17 -24 -17 -30 0 -6 23 -33 51 -62 45 -46 54 -51 95
-51 36 0 51 -6 83 -35 32 -29 46 -35 83 -35 49 0 68 13 68 46 0 32 29 61 77
77 40 14 45 13 100 -13 69 -33 185 -70 219 -70 20 0 24 5 24 30 0 38 22 48 55
26 30 -20 37 -9 23 37 -10 33 -9 40 12 62 21 23 22 29 15 92 -12 96 -8 141 15
180 12 21 20 52 20 79 0 39 4 47 30 62 39 23 41 30 24 98 -9 31 -13 68 -9 81
7 30 -15 40 -55 23 -39 -16 -73 5 -89 53 -7 20 -32 52 -62 77 -55 46 -99 108
-99 140 0 29 34 46 130 65 99 20 160 51 189 99 34 54 48 62 71 41 28 -25 25
-39 -15 -72 -30 -24 -37 -37 -46 -91 -6 -34 -8 -87 -4 -118 9 -73 51 -120 151
-170 78 -38 104 -63 104 -100 0 -40 -37 -72 -124 -104 -151 -57 -186 -104
-185 -247 1 -148 25 -185 137 -204 100 -18 127 -50 172 -206 33 -117 85 -152
204 -140 45 4 98 22 239 80 42 18 57 -8 57 -100 0 -123 48 -201 156 -254 77
-38 190 -50 283 -29 77 17 103 32 125 73 10 20 31 41 47 47 34 14 50 6 133
-69 106 -96 172 -131 248 -131 45 0 54 4 83 35 19 19 36 47 40 63 3 16 28 59
54 95 55 75 76 142 69 217 -3 27 -2 53 1 59 4 5 37 24 75 40 92 42 114 41 81
-3 -35 -47 -1 -124 90 -204 61 -54 103 -72 165 -72 57 0 56 2 29 -67 -11 -26
-10 -34 1 -48 24 -28 40 -12 85 90 25 55 53 106 62 112 9 7 32 13 50 13 43 0
43 -11 -3 -157 -19 -63 -33 -121 -30 -128 3 -8 14 -19 26 -25 18 -10 22 -8 31
20 14 37 18 34 30 -21 21 -92 85 -148 169 -149 94 -1 130 -29 130 -103 0 -53
32 -93 92 -115 72 -27 165 -45 192 -38 13 3 45 31 70 61 26 30 55 55 65 55 9
0 30 -14 47 -31 42 -45 139 -89 195 -89 62 0 109 32 125 85 7 22 13 76 14 120
2 186 31 307 86 355 31 27 42 30 97 30 34 -1 94 -9 134 -18 l71 -17 39 -75
c44 -85 90 -126 180 -160 85 -32 157 -43 250 -38 113 6 196 47 267 134 28 34
71 74 95 90 82 53 101 73 101 108 0 33 -49 139 -134 291 -59 104 -73 160 -52
209 28 68 58 35 33 -38 -14 -40 -13 -47 3 -84 20 -45 45 -57 84 -42 39 15 42
14 84 -27 39 -38 39 -38 45 -138 6 -107 23 -201 37 -210 5 -3 18 0 28 6 27 17
52 4 52 -26 0 -30 24 -34 52 -8 15 14 24 15 47 6 30 -11 81 3 95 26 18 28 99
63 168 72 40 4 89 11 109 15 22 3 39 2 43 -5 13 -21 52 -11 92 22 21 19 51 37
67 41 33 8 34 20 2 58 -33 39 -32 66 5 114 16 21 30 47 30 57 0 10 7 20 16 24
26 10 65 -39 78 -98 15 -68 41 -83 143 -83 85 -1 120 19 142 80 29 86 35 96
57 111 40 26 69 10 104 -56 47 -88 81 -116 138 -116 35 0 57 7 87 28 50 34 64
34 110 -3 47 -37 64 -37 142 -1 71 34 83 51 83 119 l0 49 69 5 c80 6 132 33
150 76 16 38 3 68 -63 157 -96 125 -117 195 -77 247 11 13 47 39 79 56 70 37
117 87 131 137 14 52 -6 110 -79 219 -33 51 -65 107 -70 125 -9 31 -6 36 56
102 82 87 80 105 -8 83 -23 -5 -28 -3 -28 12 0 11 9 33 20 49 24 36 25 61 4
69 -32 12 -130 5 -169 -13 -45 -20 -65 -18 -65 9 0 12 20 29 58 50 65 37 112
77 112 98 0 8 -14 27 -31 43 -31 29 -34 59 -5 59 7 0 17 7 20 16 12 30 -32
164 -53 164 -23 0 -69 52 -75 84 -7 39 -18 49 -69 71 -36 15 -36 15 -72 -21
-34 -33 -38 -35 -83 -28 -56 8 -62 12 -101 71 l-30 45 21 51 c35 88 69 199 84
276 18 91 10 123 -51 201 -66 87 -66 85 -63 249 4 181 -2 193 -103 229 -73 27
-91 41 -167 137 -81 103 -172 194 -217 217 -38 20 -45 20 -127 9 -95 -14 -109
-11 -101 18 8 31 -25 75 -93 127 -79 59 -111 105 -135 190 -12 45 -30 78 -54
105 -38 43 -40 51 -24 98 18 50 5 73 -67 120 -45 30 -71 54 -80 77 -22 52 -63
44 -94 -16 -11 -21 -26 -40 -35 -44 -31 -12 -83 -6 -130 15 -33 15 -57 19 -81
14 -46 -8 -54 13 -26 71 18 37 33 49 91 79 39 19 75 44 81 54 35 66 -22 286
-85 327 -17 11 -60 20 -127 26 -106 9 -136 20 -164 63 -24 37 -7 68 86 157 57
55 82 87 89 115 25 88 7 139 -72 207 -31 26 -59 57 -62 67 -4 12 4 39 19 69
46 88 34 128 -71 240 -66 70 -80 74 -173 48 -63 -18 -90 -10 -90 27 0 86 -93
217 -164 230 -65 13 -100 -7 -173 -100 l-31 -40 -31 18 c-17 10 -50 21 -73 25
-36 6 -43 12 -46 33 -2 20 4 28 33 42 19 9 35 22 35 28 0 12 -75 87 -124 124
-22 17 -31 41 -58 158 -34 144 -33 168 7 175 13 3 15 -1 10 -18 -4 -11 -2 -27
5 -34 16 -20 73 -28 106 -16 31 12 223 205 259 260 57 89 82 194 115 485 14
123 37 245 84 440 101 419 110 480 111 690 0 175 -1 184 -37 325 -70 277 -113
497 -167 865 -36 246 -118 581 -155 634 -57 81 -127 106 -341 122 -185 13
-247 31 -302 85 -51 51 -78 132 -70 204 3 25 25 95 48 156 42 106 43 112 42
219 -3 309 -161 719 -342 888 -65 61 -121 91 -245 132 -130 43 -182 44 -287 5z
m-634 -2682 c44 -20 85 -120 102 -250 9 -69 30 -160 53 -233 22 -66 46 -160
55 -210 8 -49 22 -115 30 -145 19 -71 19 -161 0 -207 -8 -20 -39 -66 -69 -103
-30 -36 -67 -93 -84 -126 -17 -33 -50 -84 -74 -113 -80 -99 -88 -113 -88 -158
0 -45 -2 -47 -52 -43 -19 1 -32 -6 -45 -27 -10 -15 -21 -32 -26 -38 -4 -5 -16
-26 -25 -45 -19 -40 -55 -52 -67 -23 -34 84 -97 274 -113 343 -12 47 -28 150
-37 230 -30 288 -37 337 -66 462 -16 69 -29 141 -29 158 0 43 173 275 262 351
35 29 92 80 127 112 82 76 103 85 146 65z m2025 -371 c58 -259 95 -465 110
-609 10 -93 8 -128 -20 -378 -71 -632 -130 -898 -208 -929 -34 -13 -97 0 -124
27 -17 17 -37 101 -55 237 -3 22 5 137 17 255 19 193 40 327 124 822 14 81 33
218 41 305 9 87 23 196 31 242 9 47 15 123 14 170 -2 47 -2 93 -1 101 4 38 25
-35 71 -243z m-2230 -1617 c0 -5 -4 -10 -10 -10 -5 0 -10 5 -10 10 0 6 5 10
10 10 6 0 10 -4 10 -10z m-55 -77 c45 -49 26 -77 -30 -43 -39 24 -44 44 -17
59 9 6 18 11 19 11 1 0 14 -12 28 -27z m2163 -705 c-3 -7 -13 -15 -24 -17 -16
-3 -17 -1 -5 13 16 19 34 21 29 4z m46 -619 c11 -10 14 -9 -129 -48 -60 -17
-125 -35 -144 -41 -31 -9 -35 -7 -70 31 -20 23 -36 46 -36 52 0 8 46 14 150
17 157 6 214 3 229 -11z m-1904 1 c0 -5 -2 -10 -4 -10 -3 0 -8 5 -11 10 -3 6
-1 10 4 10 6 0 11 -4 11 -10z m1194 -9 c9 -15 -23 -36 -36 -23 -5 5 -7 15 -4
21 9 13 33 14 40 2z m-332 -37 c-8 -42 -62 -74 -62 -37 0 21 40 65 54 60 6 -2
9 -13 8 -23z m-1963 -42 c23 -15 75 -68 116 -117 98 -116 139 -148 185 -142
19 2 42 6 50 8 21 6 25 -35 5 -55 -22 -21 -71 -20 -212 5 -168 30 -213 19
-365 -89 -175 -125 -181 -172 -42 -323 95 -103 90 -84 56 -219 -12 -49 -24
-76 -34 -78 -9 -2 -52 11 -97 28 -72 28 -81 34 -81 57 0 18 -21 47 -69 97 -77
80 -91 102 -91 143 0 56 21 102 66 147 l46 45 -26 45 c-42 72 -36 103 35 184
33 39 72 73 86 77 14 3 50 1 80 -5 30 -7 58 -8 62 -3 4 4 17 41 30 81 43 138
108 175 200 114z m1136 -19 c37 -18 47 -49 19 -60 -17 -6 -74 42 -74 64 0 17
12 16 55 -4z m945 -16 c0 -7 -6 -19 -12 -26 -11 -11 -6 -13 24 -8 21 3 40 2
43 -3 8 -13 -17 -52 -66 -102 -64 -65 -112 -74 -142 -26 -8 12 2 30 41 77 28
34 56 70 62 81 12 22 50 27 50 7z m1219 -72 c40 -43 44 -52 56 -129 7 -42 2
-41 102 -20 54 11 78 -3 142 -77 51 -59 61 -76 61 -107 0 -20 -9 -50 -20 -67
-26 -39 -25 -58 2 -70 53 -24 100 -151 78 -211 -6 -16 -40 -56 -75 -90 -102
-95 -87 -132 61 -149 34 -4 74 -15 90 -24 46 -28 86 -112 92 -192 4 -65 3 -69
-26 -98 -17 -17 -41 -31 -54 -31 -57 0 -81 -43 -93 -160 -8 -85 -15 -95 -68
-96 -24 -1 -71 -14 -105 -29 -53 -24 -70 -27 -116 -21 -66 7 -82 -5 -65 -53
17 -48 7 -130 -22 -173 -18 -28 -37 -42 -72 -54 -26 -8 -66 -34 -90 -56 l-42
-40 -78 4 c-72 3 -79 5 -101 33 l-24 30 -35 -18 c-19 -10 -60 -52 -92 -93 -57
-72 -92 -104 -116 -104 -6 0 -24 14 -39 30 -17 19 -38 30 -54 30 -30 0 -113
60 -144 105 -28 41 -41 104 -42 201 0 45 -3 102 -6 129 -8 54 -1 53 -139 16
-79 -21 -125 -21 -125 0 0 6 14 27 30 46 17 18 30 39 30 46 0 15 64 67 82 67
7 0 23 18 34 40 19 33 20 41 8 51 -22 18 -17 29 32 77 34 32 43 47 35 55 -6 6
-11 21 -11 32 0 12 -18 48 -41 80 -38 55 -44 85 -17 85 7 0 45 -34 84 -75 40
-41 77 -75 83 -75 30 0 90 42 91 63 0 4 -45 54 -100 112 -100 103 -100 104
-100 154 0 27 5 53 11 57 16 10 130 -107 127 -130 -2 -15 5 -22 30 -28 17 -5
32 -12 32 -16 0 -4 14 -16 30 -26 27 -15 30 -21 25 -50 -5 -23 -2 -36 10 -46
11 -9 14 -22 10 -40 -9 -40 17 -58 50 -36 30 20 32 37 6 60 -11 10 -17 25 -14
33 3 8 0 26 -8 40 -12 22 -11 27 6 39 28 20 33 18 37 -18 2 -25 9 -34 27 -38
22 -5 25 -11 26 -60 1 -64 -17 -100 -50 -100 -31 0 -49 -24 -41 -55 12 -47 86
-42 86 6 0 23 41 41 83 37 25 -3 31 -10 44 -46 11 -34 12 -47 2 -58 -18 -22
-28 -17 -26 13 1 20 -3 28 -17 31 -22 5 -66 -39 -66 -65 0 -20 51 -53 80 -53
10 0 22 -9 25 -20 7 -23 43 -27 51 -6 3 8 0 24 -6 36 -6 12 -10 23 -8 25 3 4
69 -9 105 -20 18 -6 23 -2 29 20 13 51 47 94 75 95 14 0 34 6 44 14 19 14 19
15 1 34 -18 21 -15 42 7 42 7 0 21 -9 30 -21 15 -16 21 -18 33 -9 19 16 18 49
-2 71 -13 14 -20 16 -35 6 -24 -15 -39 0 -55 53 -9 31 -9 42 0 50 17 14 44 -8
48 -40 2 -16 10 -26 23 -28 11 -2 29 -8 41 -13 33 -17 69 -7 72 19 3 20 -1 22
-38 22 -45 0 -79 27 -80 63 0 32 -40 78 -60 72 -28 -9 -34 12 -13 43 27 40 31
55 21 75 -14 27 -54 21 -78 -13 -25 -36 -40 -38 -40 -7 0 41 -14 48 -94 52
-85 5 -116 17 -116 45 0 13 8 20 28 22 21 2 28 9 30 31 4 33 -14 59 -39 55
-10 -2 -34 15 -58 41 l-40 43 -37 -21 c-34 -20 -38 -21 -61 -6 -17 12 -28 13
-37 6 -9 -8 -60 6 -187 52 -96 34 -180 66 -186 70 -18 11 -16 52 3 68 19 16
126 2 333 -42 75 -16 152 -32 171 -34 19 -3 67 -11 105 -18 90 -17 115 -11
140 36 19 36 19 39 2 51 -21 16 -139 32 -392 51 -239 19 -280 24 -302 41 -17
12 -17 15 -3 41 24 44 86 55 268 49 146 -5 153 -6 187 -32 29 -22 42 -26 76
-21 25 3 50 0 67 -9 49 -25 152 -12 152 19 0 8 -11 19 -24 25 -18 8 -25 21
-29 57 -8 55 5 78 83 148 77 69 120 67 189 -8z m-366 34 c-25 -25 -116 -39
-128 -19 -4 6 -4 14 -1 17 8 8 73 20 116 22 l34 1 -21 -21z m-2401 -101 c3 -6
0 -29 -8 -51 -19 -54 -18 -64 11 -71 13 -3 48 -23 76 -44 127 -91 136 -114 53
-127 -81 -12 -94 -20 -94 -59 0 -30 3 -34 30 -38 16 -3 34 0 39 5 15 15 275
66 361 70 31 2 35 -1 38 -25 2 -14 -2 -44 -7 -66 l-11 -39 -168 -58 c-226 -78
-252 -90 -252 -114 0 -19 21 -35 82 -63 32 -14 43 -56 21 -80 -9 -10 -20 -18
-25 -18 -5 0 -12 8 -15 18 -8 20 -55 72 -65 72 -4 0 -23 -16 -43 -36 -30 -29
-41 -35 -72 -32 -41 3 -65 33 -78 96 -6 29 -4 32 18 32 29 0 52 23 43 45 -6
16 -51 21 -60 7 -11 -19 -169 -12 -233 9 -62 21 -137 22 -245 3 -30 -5 -38 -3
-47 14 -6 11 -8 28 -5 36 3 9 -3 31 -15 49 l-21 34 21 27 c11 14 27 26 35 26
9 0 39 22 67 49 62 58 109 83 145 79 22 -2 28 -9 33 -38 l5 -35 10 35 11 35
71 -1 c67 -2 74 -4 101 -33 36 -39 87 -41 146 -8 53 30 52 51 -2 55 -50 4 -59
16 -69 90 -8 64 2 137 23 158 18 17 82 12 95 -8z m2091 -17 c17 -17 3 -22 -85
-33 -112 -15 -140 -15 -145 -2 -3 10 49 37 92 48 31 8 127 -2 138 -13z m-1715
-139 c38 -41 58 -80 46 -92 -5 -5 -43 -11 -84 -12 l-75 -3 -3 52 c-3 44 0 53
20 67 34 24 67 20 96 -12z m722 -162 c0 -5 -7 -10 -16 -10 -8 0 -12 5 -9 10 3
6 10 10 16 10 5 0 9 -4 9 -10z m781 -161 c45 -18 85 -43 101 -62 15 -18 28
-26 28 -18 0 18 37 10 113 -24 45 -19 57 -29 53 -42 -4 -8 -1 -22 6 -30 10
-12 14 -11 28 8 19 24 40 18 40 -11 0 -10 5 -22 10 -25 21 -13 8 -23 -23 -18
-37 6 -64 -16 -53 -42 5 -13 17 -14 71 -9 46 5 69 3 80 -6 19 -16 19 -30 0
-30 -9 0 -29 -10 -44 -21 -27 -20 -31 -20 -52 -5 -13 9 -44 19 -70 22 -26 3
-59 16 -74 29 -27 21 -28 23 -12 46 21 29 21 34 2 53 -19 19 -45 10 -45 -15 0
-41 -31 -31 -126 41 -81 61 -100 80 -119 123 -35 79 -25 83 86 36z m-1416 -49
c0 -7 -12 -22 -26 -32 -22 -16 -30 -18 -48 -9 -26 14 -20 27 22 45 37 16 52
15 52 -4z m-205 -100 c11 -21 44 -27 55 -10 3 6 13 10 22 10 12 0 14 -7 9 -32
-8 -40 -6 -39 -56 -44 -34 -4 -44 -1 -60 18 -19 23 -26 59 -13 71 12 13 32 7
43 -13z m-648 -141 c20 -10 45 -31 56 -46 34 -49 72 -132 72 -158 0 -15 5 -35
11 -46 15 -29 -7 -122 -38 -159 -21 -25 -32 -30 -69 -30 -48 0 -108 25 -138
59 -10 11 -22 42 -27 68 -5 26 -23 67 -39 91 -33 46 -36 75 -17 156 10 42 18
53 52 72 44 26 75 24 137 -7z m472 -15 c16 -6 23 -34 8 -34 -10 0 -32 22 -32
32 0 10 3 10 24 2z m2346 -54 c0 -19 -11 -26 -23 -14 -8 8 3 34 14 34 5 0 9
-9 9 -20z m-2331 -38 c-1 -15 2 -39 6 -54 6 -22 4 -28 -8 -28 -9 0 -18 8 -20
18 -12 41 -17 93 -12 103 11 17 34 -10 34 -39z m1399 -4 c2 -9 -11 -31 -27
-50 -25 -27 -32 -30 -40 -18 -18 26 -24 90 -11 105 11 13 17 13 44 -3 17 -10
32 -25 34 -34z m-1303 2 c0 -8 -8 -16 -17 -18 -13 -2 -18 3 -18 18 0 15 5 20
18 18 9 -2 17 -10 17 -18z m2075 -1 c0 -5 -7 -9 -15 -9 -15 0 -20 12 -9 23 8
8 24 -1 24 -14z m-1810 -13 c0 -3 -4 -8 -10 -11 -5 -3 -10 -1 -10 4 0 6 5 11
10 11 6 0 10 -2 10 -4z m1995 -6 c3 -5 1 -10 -4 -10 -6 0 -11 5 -11 10 0 6 2
10 4 10 3 0 8 -4 11 -10z m-145 -36 c0 -17 -22 -14 -28 4 -2 7 3 12 12 12 9 0
16 -7 16 -16z m-2033 -20 c-3 -3 -12 -4 -19 -1 -8 3 -5 6 6 6 11 1 17 -2 13
-5z m2233 -75 c0 -5 -4 -9 -10 -9 -5 0 -10 7 -10 16 0 8 5 12 10 9 6 -3 10
-10 10 -16z m-2410 -4 c0 -8 -7 -15 -15 -15 -8 0 -15 7 -15 15 0 8 7 15 15 15
8 0 15 -7 15 -15z m2328 -40 c36 -51 38 -60 19 -68 -22 -8 -34 5 -51 53 -27
77 -15 82 32 15z m-1172 -7 c68 -72 94 -109 94 -132 0 -20 -7 -24 -47 -30 -43
-6 -49 -4 -80 26 -31 30 -33 36 -33 98 0 95 7 100 66 38z m481 -41 c-2 -7 -16
-13 -30 -15 -21 -3 -29 2 -37 23 -7 18 -7 33 1 48 12 20 12 20 41 -12 16 -18
27 -38 25 -44z m804 51 c21 -27 25 -58 6 -58 -21 0 -37 22 -37 52 0 34 6 35
31 6z m-2384 -70 c-36 -26 -21 -48 34 -48 42 0 49 -13 25 -46 -13 -16 -18 -17
-35 -6 -12 6 -30 12 -41 12 -25 0 -47 37 -31 53 6 6 11 20 11 31 0 11 8 28 17
38 15 17 18 17 32 3 15 -15 13 -18 -12 -37z m2368 -47 c8 -14 -23 -41 -48 -41
-12 0 -29 -4 -37 -10 -9 -5 -19 -5 -27 2 -17 14 -7 28 21 28 12 0 31 7 42 15
22 17 40 19 49 6z m-2582 -88 c11 -10 -24 -43 -45 -43 -25 0 -23 16 4 34 25
18 32 19 41 9z m-666 -39 c-9 -9 -28 6 -21 18 4 6 10 6 17 -1 6 -6 8 -13 4
-17z m-69 -23 c7 -16 35 -44 63 -61 67 -44 65 -59 -8 -53 -35 3 -76 -1 -103
-10 -65 -20 -69 -16 -63 56 6 72 24 97 67 97 25 0 34 -6 44 -29z m629 -74 c56
-57 67 -94 39 -132 -13 -18 -15 -18 -40 -2 -16 11 -35 15 -51 11 -23 -6 -25
-4 -25 30 0 21 -5 58 -11 83 -10 37 -9 47 2 54 23 15 30 11 86 -44z m-435 -72
c11 -20 34 -42 52 -49 26 -11 33 -21 43 -67 7 -29 9 -57 5 -61 -13 -13 -124
42 -129 63 -7 24 -11 24 -32 -2 -15 -19 -20 -20 -40 -9 -21 11 -23 17 -18 61
7 59 12 69 36 69 10 0 24 7 31 15 19 22 29 19 52 -20z m-252 -80 c0 -9 -9 -15
-25 -15 -26 0 -34 15 -12 23 23 10 37 7 37 -8z m2600 -15 c11 -11 21 -30 21
-42 3 -34 -3 -273 -6 -276 -1 -2 -52 -16 -111 -32 -60 -17 -154 -43 -209 -59
-110 -32 -125 -30 -145 19 -11 26 -11 34 1 45 8 7 79 36 159 64 79 28 174 66
210 85 l65 33 -3 44 c-2 24 -6 47 -11 52 -4 4 -34 -13 -67 -37 -111 -83 -334
-182 -334 -149 0 6 14 27 30 48 17 21 30 41 30 45 0 5 24 22 53 39 28 17 68
44 88 61 34 29 154 79 192 80 9 0 26 -9 37 -20z m1572 -111 c2 -6 1 -34 -2
-62 -5 -50 -7 -54 -68 -99 -35 -27 -73 -48 -86 -48 -37 0 -57 -23 -70 -80 -16
-70 -34 -81 -83 -53 -52 30 -56 63 -11 94 66 47 176 166 183 198 4 19 13 31
23 31 9 1 28 7 42 15 30 17 67 19 72 4z m46 -205 c19 -13 22 -24 22 -78 l0
-63 -81 -60 -81 -61 -34 22 c-18 11 -33 24 -34 28 0 4 12 15 26 25 57 39 71
58 78 110 5 39 13 57 33 72 31 25 42 26 71 5z m-2922 -36 c7 -5 15 -23 18 -41
3 -18 17 -55 30 -83 l24 -51 -29 -25 c-15 -14 -31 -38 -34 -54 -25 -119 -46
-140 -112 -108 -21 10 -46 17 -55 15 -23 -3 -32 36 -25 100 3 26 2 51 -4 54
-18 12 -9 36 29 73 54 54 92 102 92 116 0 27 35 30 66 4z m-652 -61 c21 -31
10 -69 -18 -65 -15 2 -22 11 -24 31 -7 57 16 75 42 34z m2694 -26 c44 -40 49
-58 32 -107 -9 -23 -36 -43 -145 -101 -73 -40 -137 -73 -142 -73 -14 0 -50 42
-57 66 -5 16 8 40 57 100 134 166 177 185 255 115z m-684 3 c28 -27 37 -51 23
-61 -26 -21 -153 -65 -201 -70 -28 -3 -60 -12 -71 -19 -27 -19 -241 -20 -248
-1 -5 15 21 95 35 103 7 5 355 55 435 63 6 0 19 -6 27 -15z m2636 -210 c76
-40 182 -147 205 -206 34 -91 -10 -170 -127 -224 -273 -126 -318 -158 -318
-224 0 -41 20 -100 41 -121 24 -24 48 -19 142 28 175 87 315 84 357 -9 39 -85
19 -171 -66 -285 -33 -45 -65 -72 -185 -161 -30 -23 -80 -16 -159 22 -64 31
-84 36 -146 36 -70 0 -73 -1 -101 -34 -16 -19 -51 -72 -78 -117 -48 -80 -50
-86 -56 -178 -8 -106 -35 -195 -75 -239 l-24 -27 -47 55 c-63 74 -132 139
-165 156 -34 18 -57 19 -137 10 l-63 -8 8 33 c23 88 -8 197 -67 241 -14 11
-63 26 -114 34 -98 17 -139 34 -155 63 -16 31 -12 127 9 189 26 77 60 221 68
289 5 47 10 58 36 74 37 22 47 17 47 -24 0 -18 4 -38 9 -45 10 -16 71 -31 126
-32 22 0 51 -7 63 -16 30 -21 82 -35 82 -23 0 5 -7 12 -15 15 -22 9 31 84 60
84 12 0 25 3 29 8 4 4 33 8 64 9 104 4 116 7 142 37 31 37 29 98 -6 139 -29
35 -30 62 -4 102 34 51 38 59 44 78 9 28 42 19 74 -20 l30 -38 26 24 c15 14
37 43 51 66 18 32 35 46 72 60 73 27 173 84 173 99 0 8 -11 21 -25 30 -28 18
-32 47 -11 69 25 24 124 15 186 -19z m-4617 19 c12 -11 -14 -33 -39 -33 -28 0
-42 19 -23 31 17 10 53 12 62 2z m1721 -43 c11 -11 -21 -87 -42 -99 -19 -11
-333 55 -343 71 -14 22 7 31 41 19 34 -11 70 -1 70 21 0 13 260 2 274 -12z
m544 3 c60 -6 66 -14 83 -113 20 -111 22 -112 157 -36 145 81 138 84 133 -59
l-3 -120 -34 -35 c-34 -35 -43 -60 -24 -60 23 0 7 -31 -46 -91 -78 -88 -86
-90 -129 -46 l-36 37 41 114 c22 63 40 117 40 121 0 3 -10 5 -21 3 -18 -2 -30
-26 -67 -127 -42 -115 -47 -124 -79 -138 -19 -8 -40 -12 -46 -10 -8 2 -12 48
-12 148 l0 144 -28 3 c-22 3 -30 -1 -34 -17 -6 -25 -21 -27 -29 -6 -14 35 -26
13 -19 -34 4 -33 3 -51 -5 -56 -17 -11 -30 14 -30 60 0 58 -8 66 -49 49 -30
-12 -32 -17 -26 -41 4 -16 9 -61 10 -101 2 -40 8 -79 15 -87 6 -8 13 -45 13
-82 2 -63 0 -68 -20 -71 -31 -4 -35 8 -84 233 -41 188 -41 190 -23 223 18 34
15 42 -21 55 -13 5 9 31 49 60 54 39 208 97 241 91 17 -2 54 -7 83 -11z
m-2091 -50 c4 -10 -1 -22 -15 -33 -37 -30 -379 -160 -421 -160 -30 0 -44 -6
-58 -24 -25 -34 -45 -36 -53 -6 -7 31 -59 39 -96 15 -18 -12 -29 -13 -44 -5
-11 6 -25 8 -30 5 -19 -12 -10 -44 16 -58 l26 -14 -41 -21 c-23 -12 -49 -22
-57 -22 -13 0 -15 -6 -9 -27 3 -16 8 -41 9 -58 2 -16 7 -37 10 -46 5 -11 -1
-22 -19 -33 -33 -22 -31 -59 3 -64 39 -6 23 -38 -16 -34 -43 3 -52 -21 -22
-54 28 -29 50 -31 57 -4 4 14 14 20 32 20 32 -1 85 -45 77 -65 -7 -19 -30 -19
-46 0 -14 17 -46 20 -55 5 -3 -5 -17 -10 -30 -10 -29 0 -55 -24 -55 -51 0 -25
32 -25 55 1 23 26 66 26 95 0 31 -27 69 -36 91 -21 31 19 39 13 39 -28 0 -43
20 -71 49 -71 30 0 43 25 35 64 -7 41 0 44 45 19 29 -17 30 -17 58 8 15 14 39
31 53 37 14 7 32 17 41 23 20 15 69 4 69 -15 0 -8 -9 -16 -20 -19 -44 -11 -3
-77 48 -77 31 0 90 -33 98 -55 4 -8 17 -15 29 -15 26 0 257 -131 263 -149 2
-7 -11 -11 -36 -11 -22 0 -46 -2 -54 -5 -7 -3 -40 11 -73 31 -33 21 -94 56
-135 80 -41 23 -86 53 -100 68 -18 18 -32 24 -47 20 -32 -9 -60 3 -45 18 7 7
12 18 12 25 0 15 -36 18 -45 3 -3 -5 -19 -10 -35 -10 -32 0 -40 -14 -33 -53 4
-22 2 -27 -14 -27 -10 0 -24 5 -31 12 -9 9 -18 7 -40 -9 -33 -24 -83 -24 -110
1 -25 22 -62 21 -62 -2 0 -26 20 -42 51 -42 31 0 71 -43 62 -66 -3 -8 3 -33
12 -55 l18 -40 -32 -29 c-22 -21 -30 -36 -27 -48 7 -19 -63 -127 -122 -190
-31 -33 -31 -33 -67 -18 -53 23 -111 71 -125 106 -12 29 -11 43 6 152 8 47 -1
84 -21 92 -19 7 -74 -15 -136 -54 -72 -47 -132 -41 -226 22 -81 54 -105 134
-58 190 38 45 33 81 -25 173 -27 44 -50 82 -50 85 0 4 16 21 35 39 19 17 49
59 65 92 23 45 42 67 75 87 57 34 59 60 8 93 -20 13 -38 29 -41 36 -4 14 41
63 58 63 22 0 48 -38 43 -64 -5 -23 -2 -26 23 -26 19 0 38 11 61 36 24 27 37
34 50 29 47 -20 68 -16 118 22 28 20 60 50 73 65 13 15 38 36 57 48 42 26 204
55 220 39 7 -7 5 -14 -8 -23 -45 -34 34 -75 114 -59 54 11 58 33 10 49 -42 14
-68 56 -45 74 11 10 20 10 40 1 33 -15 60 -14 87 3 12 7 48 17 80 20 53 6 59
5 64 -14 7 -28 42 -26 83 5 40 29 97 34 107 8z m-1607 -47 c44 -26 55 -37 53
-57 -5 -61 -22 -198 -29 -232 -4 -25 -2 -47 7 -63 14 -27 6 -51 -22 -65 -69
-34 -68 -34 -93 -10 -20 19 -28 21 -44 12 -12 -6 -28 -11 -37 -11 -28 0 -72
38 -79 67 -4 16 -20 47 -36 69 l-29 41 23 94 24 94 35 3 c24 2 51 17 87 48 28
24 59 44 68 44 9 -1 42 -16 72 -34z m2959 -30 c62 -14 118 -29 122 -33 15 -15
-29 -103 -50 -103 -15 0 -179 53 -234 75 -15 6 -17 14 -12 44 9 48 12 52 38
46 12 -3 73 -16 136 -29z m-1329 -15 c0 -11 -17 -33 -37 -50 -28 -23 -33 -31
-19 -31 10 0 16 -5 14 -12 -4 -12 -166 -107 -185 -108 -6 0 -21 14 -33 30 -12
17 -25 30 -29 30 -4 0 -12 -17 -17 -37 l-10 -38 -17 31 c-17 33 -14 40 23 58
8 4 71 38 140 76 133 72 170 83 170 51z m1151 -114 c105 -48 109 -58 32 -71
-28 -5 -40 2 -93 45 -33 28 -60 57 -60 65 0 16 6 14 121 -39z m-126 -27 c3 -5
1 -10 -4 -10 -6 0 -11 5 -11 10 0 6 2 10 4 10 3 0 8 -4 11 -10z m633 -78 c21
-66 28 -112 17 -112 -12 0 -84 40 -90 50 -6 10 11 103 22 123 13 22 32 -1 51
-61z m-2288 33 c0 -9 10 -19 23 -24 13 -5 28 -16 35 -24 18 -21 -4 -33 -26
-14 -9 7 -25 17 -34 20 -19 7 -26 57 -8 57 6 0 10 -7 10 -15z m622 -5 c7 -11
21 -20 31 -20 38 0 10 -36 -88 -112 -55 -43 -103 -78 -108 -78 -17 0 -28 54
-16 76 6 12 8 27 4 33 -12 20 16 41 54 41 26 0 32 3 21 10 -16 10 -14 13 32
46 41 29 54 29 70 4z m3007 6 c6 -8 14 -37 18 -65 5 -47 4 -51 -16 -51 -34 0
-61 35 -61 78 0 21 3 42 7 45 11 12 40 8 52 -7z m-3399 -21 c5 -14 15 -27 22
-29 56 -17 55 -16 29 -37 -30 -24 -45 -24 -81 3 -34 25 -37 43 -13 70 22 24
32 23 43 -7z m2360 -10 c0 -8 -4 -15 -10 -15 -5 0 -10 7 -10 15 0 8 5 15 10
15 6 0 10 -7 10 -15z m-2625 -6 c4 -6 -2 -20 -13 -32 -11 -12 -26 -35 -31 -51
-9 -23 -14 -26 -26 -16 -11 9 -11 17 -3 36 6 13 14 24 18 24 4 0 12 11 18 25
12 27 27 32 37 14z m786 -77 c35 -31 34 -35 -13 -91 -29 -34 -44 -37 -72 -16
-11 8 -30 12 -47 8 -46 -9 -36 19 28 76 31 28 61 51 65 51 4 0 22 -13 39 -28z
m1327 -2 c2 -16 -52 -80 -68 -80 -13 0 -80 60 -80 71 0 29 142 38 148 9z m526
-65 c8 -86 0 -103 -40 -84 -27 13 -29 19 -32 76 -3 59 -2 63 25 77 15 8 31 11
34 8 4 -4 10 -38 13 -77z m564 52 c2 -11 -6 -28 -17 -38 -12 -11 -21 -28 -21
-39 0 -23 -105 -114 -124 -107 -7 3 -16 17 -20 32 -5 20 0 35 23 64 77 97 150
137 159 88z m-3118 -7 c10 -18 8 -20 -24 -20 -36 0 -52 12 -41 30 11 18 54 11
65 -10z m50 -30 c0 -5 -7 -10 -15 -10 -8 0 -15 5 -15 10 0 6 7 10 15 10 8 0
15 -4 15 -10z m1700 1 c0 -20 -37 -54 -53 -48 -20 7 -23 43 -4 50 21 9 57 7
57 -2z m453 -51 c5 -19 13 -41 19 -47 7 -9 7 -13 0 -13 -11 0 -62 78 -62 94 0
4 8 6 17 4 9 -2 21 -18 26 -38z m-1388 24 c36 -14 37 -51 3 -119 -18 -36 -37
-65 -42 -65 -16 0 -56 42 -56 60 0 21 59 130 70 130 5 0 16 -3 25 -6z m1062
-10 c3 -8 0 -26 -7 -39 -11 -20 -11 -27 0 -40 15 -19 -2 -45 -30 -45 -20 0
-80 31 -80 41 0 3 17 27 38 53 38 47 68 58 79 30z m-1617 -14 c0 -5 -4 -10
-10 -10 -5 0 -10 5 -10 10 0 6 5 10 10 10 6 0 10 -4 10 -10z m3103 -55 c33
-34 51 -45 75 -45 26 0 32 -5 42 -36 16 -48 17 -141 1 -186 -13 -39 -28 -49
-36 -23 -3 8 -7 21 -9 29 -4 12 -20 10 -88 -10 -46 -14 -158 -44 -250 -68
-162 -43 -167 -44 -184 -25 -9 10 -14 25 -11 33 8 21 106 51 120 37 15 -15 37
-14 31 2 -8 21 9 30 176 96 85 34 161 65 169 70 11 7 6 16 -24 43 -21 18 -51
41 -66 51 -18 12 -29 28 -29 41 0 51 29 48 83 -9z m-3388 25 c3 -5 1 -10 -4
-10 -6 0 -11 5 -11 10 0 6 2 10 4 10 3 0 8 -4 11 -10z m395 6 c0 -13 -83 -67
-95 -62 -27 10 -2 50 36 57 47 9 59 10 59 5z m1776 -45 c41 -63 13 -83 -44
-31 -28 25 -31 33 -22 50 16 30 37 24 66 -19z m-1633 18 c26 -14 56 -49 57
-67 0 -20 -51 -92 -67 -92 -19 0 -107 45 -121 63 -10 12 -4 23 35 61 51 49 62
53 96 35z m476 -13 c13 -16 -1 -56 -18 -56 -11 0 -31 56 -24 64 11 10 30 6 42
-8z m2217 -37 c14 -27 13 -29 -30 -59 -52 -35 -70 -38 -61 -10 8 26 -12 26
-40 0 -19 -18 -23 -18 -41 -6 -19 15 -19 15 1 34 11 11 44 36 74 56 59 40 69
38 97 -15z m-1572 -28 c-32 -49 -59 -51 -59 -6 0 24 7 33 35 47 48 24 57 8 24
-41z m-1534 35 c0 -3 -4 -8 -10 -11 -5 -3 -10 -1 -10 4 0 6 5 11 10 11 6 0 10
-2 10 -4z m63 -30 c3 -8 3 -17 0 -20 -7 -7 -33 13 -33 25 0 15 27 10 33 -5z
m929 -62 c8 -65 1 -171 -13 -179 -4 -3 -16 9 -25 26 -16 32 -16 45 2 177 9 60
27 48 36 -24z m638 20 c0 -9 -11 -14 -30 -14 -34 0 -38 11 -14 35 12 12 19 13
30 4 8 -6 14 -18 14 -25z m290 -12 c23 -20 31 -34 27 -45 -8 -22 -46 -22 -54
1 -3 9 -13 25 -20 34 -14 16 -11 38 5 38 4 0 23 -13 42 -28z m-1074 -47 c7
-29 -24 -137 -39 -132 -6 2 -19 15 -30 28 -18 25 -18 28 -2 90 9 35 19 68 22
73 8 12 41 -29 49 -59z m-252 -24 c24 -25 27 -35 22 -64 -11 -57 -28 -63 -70
-26 -41 36 -44 56 -15 93 26 33 29 33 63 -3z m2221 -35 c24 -17 11 -37 -37
-57 -27 -11 -32 -10 -44 6 -18 24 -18 30 2 49 19 20 54 21 79 2z m-821 -92
c21 -8 21 -54 0 -54 -8 0 -24 5 -35 10 -41 22 -10 61 35 44z m1316 -55 c-33
-28 -85 -49 -121 -49 -22 0 -55 38 -43 49 5 5 47 18 94 29 101 23 122 15 70
-29z m-2533 -1 c18 -17 23 -32 23 -70 0 -54 -11 -60 -47 -26 -17 16 -23 33
-23 63 0 60 10 68 47 33z m1147 -29 c60 -22 74 -35 58 -51 -29 -29 -142 19
-142 59 0 18 20 16 84 -8z m1164 1 c9 -5 30 -15 46 -20 54 -20 10 -37 -147
-60 -156 -22 -177 -20 -177 20 0 15 18 22 98 40 53 12 102 23 107 25 20 7 56
5 73 -5z m-3053 -20 c15 -6 25 -16 22 -23 -8 -21 13 -47 38 -47 14 0 34 -5 44
-12 31 -19 54 -3 46 32 -5 22 -3 30 7 30 7 -1 81 -29 163 -63 l150 -62 3 -43
c4 -55 -10 -60 -90 -33 -86 29 -95 35 -79 55 7 9 11 23 7 31 -7 20 -72 20 -80
0 -7 -20 -25 -19 -120 9 -44 14 -94 27 -109 31 -15 3 -31 13 -34 23 -3 9 -17
26 -31 38 -17 14 -23 26 -19 38 7 19 25 18 82 -4z m101 -1 c10 -17 -13 -36
-27 -22 -12 12 -4 33 11 33 5 0 12 -5 16 -11z m-1733 -31 c10 -5 27 -29 37
-54 17 -38 23 -44 49 -44 69 0 79 -25 28 -64 -40 -31 -59 -32 -95 -8 -15 10
-49 33 -75 50 -26 18 -58 32 -70 32 -27 0 -70 52 -65 78 2 9 17 20 33 24 36 8
133 0 158 -14z m5037 -28 c0 -5 -4 -11 -9 -15 -5 -3 -12 -19 -16 -35 -5 -22
-1 -38 16 -61 22 -31 22 -32 3 -46 -17 -13 -21 -11 -42 13 -21 24 -22 28 -8
49 13 20 13 25 2 35 -8 6 -25 8 -41 4 -25 -6 -27 -5 -20 17 10 33 18 40 57 48
35 8 58 4 58 -9z m-4487 4 c12 -12 -16 -53 -44 -64 -66 -28 -82 21 -16 50 47
22 51 23 60 14z m-1074 -71 c42 -56 40 -55 120 -51 l76 3 19 -40 c10 -22 29
-53 42 -68 15 -18 24 -41 24 -63 0 -42 17 -51 59 -30 56 30 134 11 160 -38 8
-15 30 -36 48 -47 36 -23 59 -83 48 -128 -15 -62 -14 -64 69 -107 44 -23 86
-50 93 -60 19 -26 16 -68 -6 -88 -11 -10 -25 -32 -32 -49 -27 -69 -62 -93
-184 -127 -44 -12 -83 -24 -87 -27 -5 -2 8 -34 27 -70 40 -75 44 -108 16 -123
-34 -18 -58 -12 -65 15 -8 32 -42 54 -110 69 -30 7 -67 21 -81 30 -15 10 -29
15 -33 12 -3 -3 3 -31 14 -62 18 -55 18 -56 -1 -70 -23 -17 -44 -12 -115 32
-106 65 -207 38 -372 -101 -43 -36 -85 -65 -93 -65 -9 0 -49 16 -90 35 -78 37
-113 72 -134 134 -17 53 -14 74 24 147 19 37 35 77 35 89 0 30 -32 56 -129
105 -94 47 -131 78 -131 112 0 35 48 98 86 114 37 15 43 37 19 68 -25 33 -18
70 25 124 46 57 64 66 114 56 32 -5 37 -3 45 19 14 36 78 77 121 77 32 0 76
-20 91 -42 3 -5 22 -11 42 -15 l37 -6 0 86 c0 81 2 87 29 115 66 65 145 81
180 35z m4149 4 c3 -14 -4 -17 -43 -17 -48 0 -53 13 -11 30 30 13 50 8 54 -13z
m1172 3 c13 -9 13 -11 1 -19 -27 -17 -144 -32 -194 -26 -47 7 -49 6 -42 -14 6
-20 3 -21 -57 -21 -40 0 -71 5 -84 14 -18 14 -18 16 -1 33 17 18 31 19 342 41
11 1 27 -3 35 -8z m1625 -140 c64 -33 123 -60 131 -60 21 0 17 -19 -13 -55
-16 -17 -33 -40 -38 -50 -6 -10 -28 -20 -50 -24 -39 -6 -41 -8 -60 -67 -11
-34 -26 -69 -34 -78 -18 -21 1 -46 35 -46 24 0 53 -23 55 -43 1 -7 1 -31 0
-53 -2 -23 6 -63 17 -90 30 -73 37 -140 17 -170 -19 -30 -34 -30 -132 0 -43
13 -95 26 -117 30 -21 3 -41 8 -44 11 -3 3 11 20 31 39 29 26 37 41 37 68 0
37 -41 127 -117 258 -58 101 -73 139 -73 192 0 50 18 83 72 134 89 86 123 86
283 4z m-3510 -6 c109 -42 172 -78 179 -102 6 -20 9 -63 7 -109 -1 -24 -12
-43 -41 -72 -22 -22 -40 -48 -40 -58 0 -10 -7 -31 -15 -47 -8 -15 -15 -34 -15
-42 0 -25 -21 -25 -41 0 -22 27 -39 26 -39 -2 0 -9 -5 -24 -10 -32 -9 -13 -12
-13 -23 1 -14 18 -106 66 -180 94 -26 10 -53 28 -59 39 -6 12 -26 45 -46 74
-33 51 -34 54 -23 98 7 26 23 68 37 95 21 42 33 53 87 79 74 35 93 33 222 -16z
m-1805 16 c15 -15 20 -33 20 -72 0 -69 -10 -84 -41 -67 -39 20 -139 99 -139
110 0 5 15 18 33 29 42 26 101 26 127 0z m4036 10 c24 -10 26 -14 20 -49 -5
-32 -2 -41 20 -62 30 -27 74 -113 74 -145 0 -22 -113 -108 -134 -101 -7 2 -10
30 -8 78 2 41 -2 118 -8 172 -9 88 -8 117 5 117 2 0 16 -5 31 -10z m-1511 -50
c10 -16 -21 -57 -53 -74 -51 -26 -72 -29 -72 -11 0 29 40 74 73 84 43 12 45
12 52 1z m-1538 -35 c3 -9 3 -19 -1 -22 -8 -9 -37 18 -30 28 8 14 24 11 31 -6z
m-1467 -75 c0 -5 -4 -10 -10 -10 -5 0 -10 5 -10 10 0 6 5 10 10 10 6 0 10 -4
10 -10z m8 -76 c5 -51 -17 -64 -106 -64 -95 0 -109 -9 -158 -95 -19 -36 -40
-67 -44 -70 -15 -10 -149 64 -167 91 -16 25 -16 28 7 68 l23 43 131 7 c131 6
223 22 261 44 31 18 50 10 53 -24z m1050 -26 c17 -17 15 -73 -2 -88 -8 -6 -25
-10 -38 -8 -17 2 -24 12 -30 42 -5 25 -4 43 3 52 14 17 51 18 67 2z m2111 3
c11 -7 7 -20 -19 -67 -40 -71 -53 -83 -85 -76 -34 6 -32 20 15 82 52 70 63 77
89 61z m-299 -15 c0 -8 -14 -26 -32 -41 -33 -28 -48 -28 -116 1 -28 11 -32 17
-22 28 14 18 37 23 113 25 43 1 57 -2 57 -13z m169 -5 c8 -15 4 -27 -19 -59
-16 -22 -34 -43 -40 -47 -16 -10 -80 4 -80 18 0 18 92 107 112 107 9 0 22 -8
27 -19z m-2632 -27 c97 -56 159 -121 259 -268 82 -123 95 -148 84 -161 -7 -8
-18 -15 -25 -15 -7 0 -68 61 -135 135 -71 79 -129 135 -140 135 -9 0 -30 -16
-45 -36 -23 -30 -25 -38 -14 -48 22 -21 207 -168 252 -202 44 -32 62 -74 32
-74 -9 0 -80 46 -158 103 -146 106 -216 152 -221 146 -10 -12 -26 -50 -26 -63
0 -8 17 -25 38 -37 20 -13 39 -26 43 -31 10 -15 -3 -78 -17 -78 -7 0 -47 16
-90 35 -42 19 -82 35 -89 35 -27 0 -34 -88 -7 -97 9 -3 35 -13 57 -23 22 -10
56 -21 75 -24 55 -11 263 -90 267 -102 6 -19 -52 -37 -96 -29 -29 5 -47 15
-62 36 -11 16 -27 29 -36 29 -13 0 -13 -3 -3 -15 23 -28 -2 -33 -85 -20 -184
29 -175 29 -175 3 0 -48 17 -56 163 -71 76 -8 141 -18 145 -21 3 -4 0 -19 -9
-34 -15 -27 -15 -27 -159 -32 l-145 -5 -3 -26 -3 -27 138 2 138 1 0 -45 0 -45
-70 -17 c-113 -28 -129 -27 -133 2 -5 35 -27 56 -105 101 -84 50 -101 75 -102
149 0 47 6 66 33 109 17 29 32 57 32 63 0 6 -16 28 -35 49 -47 52 -47 95 -1
169 65 104 66 104 148 110 l73 5 6 80 c13 170 83 220 206 149z m2858 26 c7
-11 -13 -90 -27 -107 -5 -6 -16 -9 -24 -6 -21 8 -17 66 7 97 22 28 34 32 44
16z m-2355 -34 c0 -20 -19 -31 -32 -18 -6 6 -7 15 -4 21 10 16 36 13 36 -3z
m2420 0 c0 -3 -4 -8 -10 -11 -5 -3 -10 -1 -10 4 0 6 5 11 10 11 6 0 10 -2 10
-4z m3047 -178 c27 -16 33 -26 33 -53 0 -18 7 -49 15 -69 11 -26 13 -42 5 -55
-12 -23 -58 -61 -74 -61 -6 0 -32 27 -58 59 -33 41 -63 67 -102 86 -53 26 -55
28 -49 58 8 46 31 67 72 68 20 0 45 4 56 9 13 5 28 3 44 -7 13 -9 39 -24 58
-35z m-5577 -20 c0 -10 7 -36 17 -59 16 -40 15 -42 -2 -55 -10 -8 -24 -14 -31
-14 -11 0 -84 116 -84 133 0 4 17 15 38 26 34 18 38 18 50 3 6 -8 12 -24 12
-34z m2234 29 c17 -13 17 -15 2 -46 -11 -20 -23 -31 -34 -29 -22 4 -47 50 -39
71 8 20 46 22 71 4z m149 -30 c16 -11 16 -15 2 -58 -28 -81 -74 -109 -121 -75
-19 14 -18 16 13 80 29 58 36 66 61 66 15 0 36 -6 45 -13z m620 -177 c33 -35
37 -45 37 -92 0 -56 -33 -141 -64 -167 -14 -12 -20 -11 -44 10 -44 38 -52 51
-52 80 0 14 -14 53 -31 85 l-30 60 33 37 c30 35 36 38 73 32 29 -4 50 -16 78
-45z m2164 12 c7 -4 12 -24 11 -43 -1 -46 12 -68 66 -113 25 -21 49 -48 52
-62 12 -48 32 -27 42 44 6 39 11 48 30 50 30 5 58 -21 88 -79 29 -57 73 -96
122 -106 54 -12 176 -6 260 12 40 8 81 15 91 15 19 0 84 -78 114 -137 24 -46
22 -127 -4 -173 -12 -20 -39 -48 -61 -61 -112 -67 -114 -85 -29 -210 34 -50
64 -102 67 -115 17 -66 -35 -114 -123 -114 -29 0 -53 -3 -54 -7 0 -5 -1 -25
-3 -46 -4 -45 -26 -72 -84 -97 -59 -26 -84 -25 -121 6 l-31 26 -26 -21 c-30
-24 -101 -28 -137 -10 -27 14 -56 49 -57 69 -1 24 -38 62 -57 58 -10 -2 -31
-29 -48 -63 -38 -76 -75 -98 -158 -92 -70 4 -101 28 -99 79 1 43 -11 56 -83
88 l-61 27 2 99 c1 55 4 110 6 124 3 22 -1 26 -32 30 -42 6 -42 9 -6 140 43
156 35 208 -44 304 -43 52 -54 79 -54 140 0 31 5 43 29 62 45 36 83 39 190 15
53 -12 99 -21 104 -21 5 0 10 35 12 78 3 47 10 86 18 95 14 18 48 22 68 9z
m-5492 -112 c45 -27 87 -56 93 -63 13 -16 5 -57 -12 -57 -6 0 -49 19 -96 43
-74 36 -85 46 -88 70 -4 30 3 57 14 57 3 0 43 -22 89 -50z m2081 -11 c8 -13
-13 -29 -38 -29 -11 0 -18 8 -18 20 0 15 7 20 24 20 14 0 28 -5 32 -11z m2240
-29 c24 -22 60 -48 79 -57 19 -9 35 -20 35 -25 0 -4 -17 -19 -39 -32 -64 -41
-83 -73 -79 -132 2 -33 -2 -57 -11 -68 -17 -21 -8 -31 38 -43 51 -13 48 -29
-8 -58 -64 -32 -66 -54 -10 -94 39 -29 70 -42 132 -55 18 -4 27 -13 27 -26 0
-23 0 -23 -107 -20 -113 3 -123 -1 -123 -54 0 -39 -3 -45 -29 -56 -21 -8 -46
-41 -92 -118 -63 -106 -64 -107 -71 -202 -9 -124 -37 -201 -93 -258 -39 -39
-46 -42 -95 -42 -55 0 -144 39 -193 84 -22 21 -23 25 -15 111 10 112 24 173
47 212 18 29 21 30 122 36 175 12 277 49 204 77 -24 9 -55 56 -55 84 0 16 29
36 52 36 7 0 21 -14 30 -31 14 -24 24 -30 44 -27 56 6 57 69 2 76 -32 4 -66
38 -52 52 7 7 32 -1 73 -22 59 -31 63 -32 76 -15 7 10 13 40 13 67 0 49 -1 49
-49 75 -27 14 -57 25 -66 24 -15 0 -14 -2 4 -11 47 -23 41 -82 -9 -92 -22 -4
-47 1 -85 18 l-53 25 4 43 4 43 52 8 c60 8 90 22 90 41 0 8 7 26 15 42 13 26
12 29 -10 50 -14 13 -25 30 -25 39 0 20 28 31 43 16 6 -6 24 -11 40 -11 26 0
32 8 73 94 47 100 53 131 29 162 -14 19 -21 74 -9 74 4 0 26 -18 50 -40z
m-2217 -100 c0 -61 -4 -80 -16 -84 -24 -9 -35 4 -31 35 3 19 0 29 -9 29 -15 0
-26 37 -21 71 4 28 46 53 65 38 8 -7 12 -39 12 -89z m626 51 c0 -8 -8 -19 -17
-25 -22 -13 -44 5 -34 29 7 20 51 16 51 -4z m-2577 -18 c10 -20 5 -43 -8 -43
-13 0 -32 39 -25 50 9 15 23 12 33 -7z m1790 -20 c6 -16 14 -63 17 -105 4 -43
11 -80 16 -84 5 -3 9 -16 9 -30 0 -26 -21 -32 -38 -11 -11 14 -52 196 -52 232
0 35 34 33 48 -2z m-184 -19 c11 -28 6 -54 -9 -54 -10 0 -15 11 -15 35 0 36
13 47 24 19z m110 -107 c31 -102 29 -126 -12 -113 -22 7 -26 24 -38 150 -10
100 14 83 50 -37z m-610 74 c3 -5 -1 -14 -8 -20 -16 -13 -32 2 -21 19 8 12 22
13 29 1z m946 -41 c0 -22 -25 -44 -40 -35 -11 7 -14 68 -3 78 10 10 43 -23 43
-43z m573 -5 c-1 -16 -9 -36 -18 -44 -15 -15 -18 -14 -31 3 -19 26 -18 32 8
56 28 26 44 20 41 -15z m-1448 15 c3 -5 1 -10 -4 -10 -6 0 -11 5 -11 10 0 6 2
10 4 10 3 0 8 -4 11 -10z m1627 -7 c31 -36 32 -113 1 -113 -7 0 -33 18 -56 39
l-42 39 24 26 c29 30 52 33 73 9z m-434 -5 c18 -18 14 -46 -7 -58 -16 -8 -21
-5 -30 22 -6 17 -11 35 -11 39 0 13 34 11 48 -3z m-214 -51 c8 -22 6 -33 -11
-55 -28 -37 -53 -41 -53 -8 0 15 4 34 9 44 5 9 12 25 15 35 8 25 29 16 40 -16z
m-199 3 c0 -7 -6 -15 -12 -17 -8 -3 -13 4 -13 17 0 13 5 20 13 18 6 -3 12 -11
12 -18z m2689 -40 c29 -11 61 -54 51 -69 -6 -11 -138 49 -150 69 -8 13 65 13
99 0z m-2380 -23 c8 -13 7 -20 -4 -27 -8 -5 -18 -6 -23 -3 -5 3 -17 -4 -28
-16 -21 -22 -39 -20 -39 4 0 16 61 66 74 62 5 -2 14 -11 20 -20z m-1279 -43
c0 -15 -8 -20 -40 -22 -22 -1 -46 2 -54 7 -18 12 -7 58 17 64 26 6 77 -26 77
-49z m1535 40 c0 -20 -66 -84 -86 -84 -25 0 -74 30 -74 45 0 20 32 35 74 33
20 -1 42 4 48 10 17 17 38 15 38 -4z m-4105 -64 c46 -17 72 -21 111 -16 50 6
52 5 64 -24 16 -38 6 -76 -23 -91 -12 -6 -34 -23 -49 -36 -25 -24 -31 -25 -93
-18 -55 6 -68 10 -75 28 -4 12 -24 36 -44 54 -40 35 -43 48 -21 99 17 42 27
42 130 4z m1622 -5 c8 -23 1 -27 -74 -41 -131 -25 -162 -11 -70 31 60 29 134
33 144 10z m2677 -1 c9 -3 16 -12 16 -20 0 -10 7 -13 24 -8 27 6 51 -22 37
-45 -4 -6 -64 -28 -132 -47 -175 -49 -224 -40 -157 30 22 22 60 45 113 65 44
17 81 30 82 31 1 0 8 -3 17 -6z m-1709 -79 c28 -14 55 -25 62 -25 15 0 33 -32
33 -59 0 -26 -4 -26 -102 1 -73 20 -80 24 -94 56 -8 19 -14 38 -14 43 0 17 66
8 115 -16z m-928 -1 c3 -8 -1 -21 -8 -28 -22 -20 -418 -186 -443 -186 -65 0
-114 -46 -83 -78 11 -10 37 -1 143 49 166 79 302 139 314 139 29 0 -3 -39
-115 -139 -69 -62 -125 -118 -125 -125 0 -8 7 -19 15 -26 18 -15 19 -34 3 -60
-7 -10 -9 -23 -4 -27 10 -10 56 42 56 64 0 21 140 163 161 163 27 0 49 -11 49
-25 0 -6 -36 -62 -81 -124 -76 -105 -91 -142 -57 -140 7 0 35 34 61 76 l48 75
37 -7 c20 -4 39 -8 41 -10 2 -2 -19 -45 -45 -94 -37 -69 -54 -91 -69 -91 -12
0 -28 -12 -38 -29 -15 -26 -21 -29 -55 -24 -29 3 -53 -4 -116 -36 -108 -56
-153 -56 -207 -3 -28 28 -43 56 -55 101 -22 77 -56 116 -115 130 -97 24 -117
53 -118 171 -1 109 39 160 156 197 52 16 56 16 68 0 16 -22 30 -21 132 5 66
18 88 20 103 11 15 -10 21 -8 32 8 10 16 44 28 128 49 135 33 178 36 187 14z
m2317 -70 c9 -34 -5 -48 -38 -40 -28 7 -35 33 -14 54 21 21 45 14 52 -14z
m447 -46 c17 -24 45 -55 62 -70 30 -27 30 -28 17 -68 -12 -36 -11 -45 3 -76
14 -28 31 -42 83 -65 64 -29 66 -31 60 -60 -5 -24 0 -38 24 -67 41 -52 67
-117 82 -201 l12 -73 -31 -29 c-41 -36 -104 -53 -168 -45 -164 20 -164 20
-186 0 -32 -29 -40 -57 -54 -200 -17 -167 -28 -206 -66 -238 -35 -30 -45 -31
-118 -11 -38 10 -66 26 -96 55 -22 22 -44 40 -47 40 -4 0 -29 -22 -56 -50 -56
-57 -76 -61 -178 -32 -67 19 -79 31 -45 48 12 6 24 13 26 16 3 3 -19 78 -49
168 -30 90 -53 167 -50 172 6 10 58 11 68 1 4 -5 20 -8 36 -8 23 0 40 -14 87
-69 32 -38 63 -71 69 -73 6 -2 22 5 35 16 l24 20 -54 55 c-36 36 -52 60 -48
70 11 27 29 18 102 -49 39 -36 75 -65 82 -65 7 0 24 10 39 23 l27 23 -57 50
c-30 27 -56 54 -56 60 0 18 38 47 55 40 8 -3 25 -21 36 -41 13 -21 25 -32 32
-28 7 4 20 6 29 5 20 -4 68 26 68 42 0 6 -19 21 -42 34 -67 35 -102 67 -95 85
3 9 25 28 48 43 l43 27 54 -18 c51 -16 54 -16 68 2 17 23 18 48 0 62 -7 6 -11
21 -9 34 5 23 -10 41 -49 62 -41 20 -18 30 67 27 83 -3 84 -2 98 25 20 39 29
83 18 83 -5 0 -11 -6 -13 -12 -3 -9 -33 -12 -109 -10 -57 2 -107 7 -111 10 -3
4 -8 16 -10 26 -1 10 -12 24 -23 30 -11 6 -22 12 -25 14 -13 8 30 22 71 22 39
0 49 -4 63 -25 22 -34 45 -32 57 5 9 25 16 30 43 30 18 0 35 3 38 6 7 7 -8 64
-21 77 -5 5 -43 3 -92 -4 -121 -17 -114 -19 -116 23 -3 46 17 60 71 51 27 -4
40 -2 49 10 10 13 56 32 89 36 3 1 21 -18 39 -41z m-306 -48 c7 -23 -10 -50
-31 -50 -7 0 -19 10 -25 22 -10 18 -8 24 7 35 25 19 42 16 49 -7z m-1034 -43
c-13 -13 -26 -3 -16 12 3 6 11 8 17 5 6 -4 6 -10 -1 -17z m27 -71 c2 -3 2 -12
-1 -21 -5 -11 -22 -15 -71 -15 -72 0 -88 10 -54 35 17 12 36 15 72 11 27 -3
51 -8 54 -10z m2280 -18 c17 -17 15 -58 -2 -58 -28 0 -66 20 -66 34 0 15 26
35 46 36 5 0 15 -5 22 -12z m-2261 -84 c8 -21 -8 -30 -65 -38 -49 -7 -72 4
-72 35 0 17 8 19 65 19 51 0 67 -4 72 -16z m33 -68 c0 -2 3 -12 6 -20 5 -12
-8 -22 -51 -41 -31 -14 -60 -23 -64 -20 -14 8 -19 54 -7 64 19 15 116 29 116
17z m3286 -47 c3 -6 0 -17 -7 -25 -18 -17 -44 -2 -36 20 7 18 33 21 43 5z
m-4697 -26 l30 -28 -30 -95 -29 -95 21 -17 c12 -10 25 -18 29 -18 5 0 17 37
27 83 17 75 21 82 43 82 19 0 24 4 22 20 -2 11 -9 26 -14 33 -14 16 27 62 54
62 28 0 30 -16 20 -146 -8 -95 -7 -126 4 -153 l14 -34 25 27 c21 23 25 37 25
92 0 35 3 64 8 64 4 0 17 -7 29 -15 13 -9 24 -11 28 -5 7 12 -30 50 -49 50
-29 0 -38 86 -10 97 20 7 74 -20 104 -52 12 -13 34 -67 50 -120 16 -54 33
-102 38 -107 5 -5 19 -5 35 1 l26 10 -26 71 c-19 52 -23 74 -15 82 18 18 57
-15 70 -61 16 -51 35 -61 111 -61 57 0 61 -2 61 -22 0 -13 -18 -51 -39 -84
-21 -34 -42 -75 -46 -93 -3 -17 -19 -40 -33 -52 -40 -32 -91 -21 -173 38 -38
26 -90 63 -116 81 -25 18 -53 31 -62 30 -8 -2 -26 -19 -38 -38 -62 -92 -266
-94 -372 -3 -54 46 -80 102 -81 171 0 48 2 53 26 63 20 7 32 6 50 -6 13 -8 27
-15 32 -15 4 0 23 36 41 80 32 78 53 110 72 110 5 0 22 -12 38 -27z m1077 -39
c8 -19 12 -44 9 -53 -6 -18 -177 -101 -209 -101 -18 0 -29 35 -24 76 3 29 28
43 110 59 15 3 40 16 55 30 15 13 32 25 36 25 4 0 15 -16 23 -36z m3514 16 c0
-5 -14 -10 -31 -10 -17 0 -28 4 -24 10 3 6 17 10 31 10 13 0 24 -4 24 -10z
m-3220 -19 c0 -12 -114 -111 -128 -111 -14 0 -24 29 -17 50 3 10 31 29 63 43
60 28 82 33 82 18z m110 -38 c0 -23 -130 -183 -149 -183 -21 0 -41 19 -41 40
0 26 155 171 174 164 9 -3 16 -13 16 -21z m65 -43 c8 -13 -82 -177 -101 -184
-20 -8 -54 5 -54 21 0 21 118 173 135 173 8 0 17 -5 20 -10z m63 -96 c2 -16
-5 -25 -28 -34 -39 -16 -45 -9 -25 30 18 35 48 38 53 4z m190 -125 c26 -9 34
-20 46 -57 31 -106 50 -192 44 -198 -4 -3 -26 -9 -50 -11 -34 -4 -49 0 -70 17
-28 21 -28 23 -28 141 0 130 -1 129 58 108z m-118 -91 c0 -39 -3 -49 -12 -40
-17 17 -11 92 8 92 2 0 4 -23 4 -52z m239 -239 c14 -39 14 -69 1 -69 -15 0
-30 35 -30 69 0 40 15 40 29 0z"/>
<path d="M6140 6061 c0 -27 34 -104 54 -120 9 -7 16 -20 16 -27 0 -8 10 -14
25 -14 20 0 25 5 25 26 0 19 8 28 35 40 59 24 47 38 -70 83 -44 17 -81 31 -82
31 -2 0 -3 -9 -3 -19z"/>
<path d="M6023 5944 c-7 -3 -13 -15 -13 -25 0 -17 6 -20 38 -17 29 2 37 7 37
23 0 20 -34 30 -62 19z"/>
<path d="M6116 5881 c-17 -33 -35 -42 -65 -34 -16 4 -21 1 -21 -16 0 -17 6
-21 30 -21 17 0 30 -4 30 -9 0 -15 32 -22 46 -10 8 6 14 22 14 34 0 13 11 30
25 39 37 24 32 46 -10 46 -28 0 -37 -5 -49 -29z"/>
<path d="M6318 5893 c-3 -10 -1 -29 4 -41 4 -13 6 -28 2 -33 -9 -15 -41 -10
-48 7 -4 10 -16 14 -38 12 -28 -2 -33 -7 -33 -28 0 -21 5 -25 31 -26 32 0 98
-50 88 -66 -9 -14 16 -48 36 -48 28 0 28 55 0 70 -25 13 -27 71 -4 90 23 20
15 74 -13 78 -14 2 -23 -3 -25 -15z"/>
<path d="M6357 5574 c-13 -14 -7 -43 12 -53 23 -13 45 8 39 36 -3 18 -38 30
-51 17z"/>
<path d="M6531 5466 c-15 -18 -6 -52 16 -60 23 -9 35 7 31 40 -3 32 -28 43
-47 20z"/>
<path d="M6390 5351 c0 -12 6 -21 16 -21 9 0 14 7 12 17 -5 25 -28 28 -28 4z"/>
<path d="M5620 5331 c-18 -34 -11 -77 20 -119 16 -23 39 -46 50 -52 25 -14 25
-30 -1 -64 -13 -16 -18 -33 -14 -46 8 -25 43 -26 52 -2 4 9 15 28 25 41 24 31
23 37 -7 63 -14 12 -25 28 -25 35 0 29 -62 163 -76 163 -7 0 -18 -9 -24 -19z"/>
<path d="M6306 5265 c-8 -23 12 -57 32 -53 27 5 23 62 -4 66 -13 2 -24 -4 -28
-13z"/>
<path d="M6227 5203 c-13 -13 -7 -54 9 -60 24 -9 46 24 33 48 -10 19 -30 25
-42 12z"/>
<path d="M5784 5042 c-18 -12 -23 -40 -10 -58 17 -23 46 -11 46 19 0 28 -20
49 -36 39z"/>
<path d="M3332 5995 c-7 -14 -12 -29 -12 -33 1 -10 40 38 40 49 0 18 -17 8
-28 -16z"/>
<path d="M3774 5996 c-10 -8 -15 -18 -11 -22 4 -4 17 2 30 14 24 25 12 30 -19
8z"/>
<path d="M3148 5994 c-5 -4 -8 -21 -8 -38 0 -21 3 -27 11 -19 6 6 9 23 7 38
-2 15 -6 23 -10 19z"/>
<path d="M3562 5967 c-12 -13 -22 -30 -22 -38 0 -22 67 -71 93 -67 31 4 34 35
4 49 -26 12 -51 54 -42 70 12 18 -12 8 -33 -14z"/>
<path d="M7485 3560 c-8 -13 4 -70 15 -70 5 0 21 5 35 10 21 8 26 16 23 38 -2
22 -8 28 -35 30 -17 2 -34 -2 -38 -8z"/>
<path d="M7222 3507 c-7 -7 -23 -23 -35 -36 -12 -14 -32 -36 -45 -49 -14 -14
-21 -31 -17 -41 7 -22 -8 -34 -58 -51 -21 -6 -37 -14 -35 -16 2 -2 21 2 41 8
20 6 39 9 42 6 3 -2 6 -23 8 -46 3 -23 9 -48 16 -55 6 -8 8 -17 4 -20 -3 -4 0
-7 8 -7 9 0 29 -16 46 -35 40 -44 72 -45 150 -5 31 17 66 30 76 30 10 0 15 4
12 10 -3 5 1 23 10 40 20 39 21 116 2 152 -19 37 -52 62 -129 98 -70 33 -77
34 -96 17z"/>
<path d="M6858 3475 c-9 -20 -8 -28 5 -43 19 -20 13 -95 -9 -113 -42 -35 13
-68 62 -38 17 10 40 19 50 19 17 0 17 0 -1 13 -13 10 -16 21 -12 39 5 18 1 30
-13 43 -31 28 -15 35 63 30 l72 -5 -71 23 c-39 13 -82 31 -95 40 -31 22 -37
21 -51 -8z"/>
<path d="M7534 3415 c-19 -29 -12 -44 11 -25 8 7 26 10 40 7 18 -3 29 1 35 14
15 27 13 29 -30 29 -31 0 -43 -5 -56 -25z"/>
<path d="M7690 3365 c-7 -8 -19 -15 -26 -15 -22 0 -4 -29 27 -45 38 -20 39
-19 39 14 0 56 -16 75 -40 46z"/>
<path d="M7597 3273 c26 -5 41 -47 26 -72 -12 -20 -55 -26 -93 -13 -23 8 -30
7 -34 -5 -4 -9 2 -24 13 -34 10 -10 27 -41 36 -69 19 -57 34 -68 71 -51 20 9
25 17 22 39 -2 22 -11 30 -43 40 -37 12 -54 26 -55 45 0 15 34 6 85 -23 49
-28 55 -29 69 -14 11 10 16 33 16 67 0 51 -1 52 -42 75 -24 12 -54 21 -68 21
-23 -2 -24 -2 -3 -6z"/>
<path d="M6957 3193 c-13 -12 -7 -49 13 -88 17 -34 26 -41 60 -46 37 -5 40 -4
40 18 0 14 12 41 27 61 21 29 23 33 6 19 -30 -26 -58 -18 -56 16 2 25 -1 27
-41 27 -23 0 -46 -3 -49 -7z"/>
<path d="M7146 3099 c-27 -8 -45 -24 -46 -42 0 -4 14 -21 30 -39 17 -17 30
-39 30 -49 0 -23 35 -42 64 -35 13 3 31 -1 42 -9 10 -8 31 -15 46 -15 15 0 30
-4 33 -10 8 -12 35 -13 54 -1 12 8 12 14 -2 44 -10 19 -17 40 -17 46 0 17 -10
13 -31 -11 -16 -20 -20 -21 -29 -8 -5 8 -10 28 -10 44 l0 29 -24 -23 c-27 -24
-56 -22 -56 5 0 11 -6 15 -19 10 -15 -4 -20 2 -27 33 -9 37 -10 38 -38 31z"/>
<path d="M7456 3038 c4 -13 8 -38 9 -57 2 -38 28 -63 60 -59 29 4 30 33 1 46
-14 6 -34 29 -46 52 -22 43 -36 54 -24 18z"/>
<path d="M5697 3753 c-21 -39 -21 -43 -2 -43 15 0 30 40 23 62 -3 8 -12 0 -21
-19z"/>
<path d="M2715 3730 c-12 -20 6 -50 30 -50 30 0 39 14 25 40 -11 21 -44 27
-55 10z"/>
<path d="M2686 3615 c-3 -9 3 -24 14 -35 22 -22 50 -17 50 9 0 36 -52 57 -64
26z"/>
<path d="M2717 3493 c-14 -13 -6 -33 13 -33 11 0 20 4 20 9 0 13 -26 32 -33
24z"/>
<path d="M2849 3354 c-9 -11 -10 -20 -2 -32 14 -23 49 -27 57 -7 12 33 -33 65
-55 39z"/>
<path d="M2642 3313 c2 -21 9 -29 27 -31 32 -5 46 11 32 37 -7 13 -22 21 -37
21 -22 0 -25 -4 -22 -27z"/>
<path d="M3470 3516 c0 -8 4 -17 9 -20 11 -7 33 18 24 27 -12 12 -33 7 -33 -7z"/>
<path d="M930 2774 c0 -9 7 -14 17 -12 25 5 28 28 4 28 -12 0 -21 -6 -21 -16z"/>
<path d="M964 2658 c6 -31 3 -37 -34 -66 -25 -21 -37 -38 -34 -47 8 -19 -19
-29 -43 -17 -24 13 -43 4 -43 -19 0 -12 11 -24 28 -30 l27 -11 -23 -18 c-21
-17 -22 -23 -14 -74 7 -42 6 -61 -5 -75 -17 -26 -6 -54 19 -48 14 4 22 -2 28
-19 10 -25 30 -33 30 -11 0 6 -5 29 -11 51 -15 53 2 68 34 30 19 -22 24 -36
20 -65 -5 -35 -3 -38 32 -55 36 -17 38 -17 51 1 8 10 17 16 20 12 3 -3 24 4
45 15 38 19 49 40 29 53 -10 6 -66 -29 -86 -54 -14 -17 -44 -8 -44 14 0 8 11
20 25 25 14 5 25 18 25 27 0 13 13 22 42 31 41 13 43 13 65 -13 27 -30 57 -30
61 1 2 16 -4 23 -26 27 -29 6 -56 45 -47 69 7 17 55 39 67 32 5 -3 1 -12 -9
-20 -17 -13 -17 -15 1 -29 11 -8 26 -15 33 -15 15 0 33 39 26 56 -2 7 0 15 6
19 6 3 11 13 11 22 0 11 -6 14 -25 9 -24 -6 -25 -4 -25 34 0 31 -4 40 -17 40
-27 0 -83 23 -83 35 0 5 -4 16 -9 24 -8 12 -12 12 -25 2 -22 -18 -39 -5 -26
20 9 15 7 21 -5 25 -22 9 -48 -15 -35 -31 15 -18 3 -40 -27 -54 -38 -17 -57 4
-25 28 19 14 23 25 20 56 -2 22 -9 40 -17 43 -11 4 -12 -3 -7 -30z m136 -143
c0 -16 -27 -32 -37 -21 -7 7 16 36 28 36 5 0 9 -7 9 -15z m84 -27 c19 -36 20
-48 6 -48 -6 0 -15 11 -20 24 -5 13 -14 27 -20 31 -11 7 -4 25 10 25 5 0 16
-14 24 -32z m-54 -42 c0 -16 -54 -59 -63 -50 -9 9 35 64 50 64 7 0 13 -6 13
-14z m-110 -126 c0 -5 -5 -10 -11 -10 -5 0 -7 5 -4 10 3 6 8 10 11 10 2 0 4
-4 4 -10z"/>
<path d="M1100 2665 c-10 -12 -9 -16 5 -21 19 -8 40 9 31 25 -10 15 -21 14
-36 -4z"/>
<path d="M890 2650 c-12 -7 -12 -12 -2 -22 9 -9 15 -9 24 0 16 16 -2 34 -22
22z"/>
<path d="M1165 2620 c-11 -17 5 -32 21 -19 7 6 11 15 8 20 -7 12 -21 11 -29
-1z"/>
<path d="M783 2594 c-3 -9 -15 -19 -26 -23 -14 -5 -20 -19 -23 -49 -4 -37 -2
-42 17 -42 18 0 20 4 15 25 -7 28 18 75 40 75 8 0 14 7 14 15 0 20 -29 19 -37
-1z"/>
<path d="M675 2570 c-11 -18 5 -31 26 -20 11 6 17 15 14 21 -8 12 -32 12 -40
-1z"/>
<path d="M642 2467 c-22 -24 -29 -47 -13 -47 12 0 61 47 61 60 0 18 -26 11
-48 -13z"/>
<path d="M696 2453 c-10 -10 8 -34 35 -49 16 -8 29 -21 29 -29 0 -8 4 -15 9
-15 4 0 8 16 7 36 -1 32 -5 37 -38 49 -21 7 -39 10 -42 8z"/>
<path d="M692 2359 c1 -12 9 -24 16 -27 9 -3 13 3 10 19 -1 12 -9 24 -16 27
-9 3 -13 -3 -10 -19z"/>
<path d="M1350 2335 c0 -10 7 -15 18 -13 21 4 19 22 -2 26 -10 2 -16 -3 -16
-13z"/>
<path d="M758 2319 c-10 -6 -18 -14 -18 -19 0 -14 37 -12 46 1 10 17 -9 29
-28 18z"/>
<path d="M1280 2277 c0 -14 58 -39 71 -31 19 12 7 32 -22 38 -44 8 -49 8 -49
-7z"/>
<path d="M717 2244 c-4 -4 -7 -18 -7 -31 0 -20 5 -24 23 -21 16 2 22 10 22 28
0 24 -23 39 -38 24z"/>
<path d="M870 2125 c0 -8 7 -15 15 -15 8 0 15 7 15 15 0 8 -7 15 -15 15 -8 0
-15 -7 -15 -15z"/>
<path d="M8074 1896 c-11 -29 44 -74 60 -48 3 5 -8 22 -24 37 -26 25 -30 26
-36 11z"/>
<path d="M8010 1835 c0 -8 9 -15 20 -15 11 0 20 7 20 15 0 8 -9 15 -20 15 -11
0 -20 -7 -20 -15z"/>
<path d="M8193 1803 c-18 -7 -16 -34 4 -48 19 -14 20 -74 1 -86 -7 -5 -20 -6
-30 -3 -22 7 -30 -10 -30 -58 1 -26 -3 -38 -11 -35 -14 4 -17 67 -4 84 5 7 5
18 1 24 -5 9 -1 11 14 7 29 -8 38 21 13 45 -24 24 -48 17 -61 -18 -5 -14 -16
-25 -25 -25 -22 0 -18 -21 5 -27 24 -6 25 -21 5 -51 -15 -20 -14 -24 17 -56
21 -23 33 -45 33 -63 0 -23 4 -27 23 -25 27 4 30 -22 5 -37 -16 -9 -16 -12 -3
-21 23 -15 45 -7 48 17 4 26 19 33 55 26 33 -6 36 -33 4 -33 -27 0 -72 -54
-63 -76 7 -19 26 -18 26 1 0 27 38 55 76 55 27 0 37 5 41 20 3 11 9 20 13 20
4 0 15 -9 25 -20 36 -39 79 -18 51 25 -21 32 -21 33 11 37 20 2 29 10 34 28
11 51 31 89 50 95 22 7 26 45 4 45 -10 0 -15 10 -15 30 0 49 -25 36 -36 -17
-10 -55 -33 -64 -45 -19 -6 23 -3 38 13 64 20 32 20 35 3 65 -17 32 -18 32
-93 32 -62 0 -77 -3 -77 -15 0 -18 82 -24 103 -7 17 13 35 -4 30 -29 -3 -13
-11 -18 -28 -16 -14 1 -30 -4 -36 -12 -16 -23 -81 -9 -101 21 -9 13 -13 26 -9
30 6 7 -12 34 -23 32 -3 0 -12 -3 -18 -6z m162 -123 c3 -5 1 -10 -4 -10 -6 0
-11 5 -11 10 0 6 2 10 4 10 3 0 8 -4 11 -10z m-95 -49 c0 -11 -69 -36 -77 -27
-3 3 -3 12 0 21 7 16 77 22 77 6z m135 -51 c3 -5 1 -10 -4 -10 -6 0 -11 5 -11
10 0 6 2 10 4 10 3 0 8 -4 11 -10z m-177 -32 c-5 -15 -48 -24 -48 -10 0 14 12
22 33 22 10 0 17 -5 15 -12z"/>
<path d="M8532 1788 c7 -19 38 -22 38 -4 0 10 -9 16 -21 16 -12 0 -19 -5 -17
-12z"/>
<path d="M8614 1645 c-8 -21 2 -45 19 -45 8 0 20 7 27 15 10 12 10 18 0 30 -7
8 -19 15 -27 15 -7 0 -16 -7 -19 -15z"/>
<path d="M8542 1568 c7 -20 48 -23 48 -4 0 11 -9 16 -26 16 -16 0 -24 -5 -22
-12z"/>
<path d="M8044 1509 c-10 -17 13 -36 27 -22 12 12 4 33 -11 33 -5 0 -12 -5
-16 -11z"/>
<path d="M8517 1500 c-23 -27 -22 -33 12 -69 28 -30 30 -31 36 -11 4 14 1 28
-10 40 -10 11 -15 28 -12 40 7 26 -4 26 -26 0z"/>
<path d="M8584 1505 c-7 -17 4 -37 17 -30 12 8 12 45 -1 45 -6 0 -13 -7 -16
-15z"/>
<path d="M8074 1439 c-10 -17 13 -36 27 -22 12 12 4 33 -11 33 -5 0 -12 -5
-16 -11z"/>
<path d="M8470 1392 c0 -20 -30 -39 -68 -44 -39 -5 -19 -23 21 -20 57 4 120
82 67 82 -13 0 -20 -7 -20 -18z"/>
<path d="M8573 1393 c-13 -2 -23 -11 -23 -20 0 -12 7 -14 37 -8 46 8 55 13 48
26 -6 9 -22 10 -62 2z"/>
<path d="M8270 1346 c0 -10 9 -16 21 -16 24 0 21 23 -4 28 -10 2 -17 -3 -17
-12z"/>
<path d="M8490 1305 c7 -8 19 -15 26 -15 8 0 14 7 14 15 0 10 -10 15 -26 15
-22 0 -25 -2 -14 -15z"/>
<path d="M8162 1248 c7 -19 38 -22 38 -4 0 10 -9 16 -21 16 -12 0 -19 -5 -17
-12z"/>
<path d="M6831 1671 l-23 -18 23 -21 c31 -30 59 -29 59 2 0 57 -18 68 -59 37z"/>
<path d="M2145 1440 c-4 -6 6 -10 24 -10 16 0 33 5 36 10 4 6 -6 10 -24 10
-16 0 -33 -4 -36 -10z"/>
<path d="M2233 1330 c-26 -11 -31 -30 -7 -30 21 0 54 18 54 30 0 12 -17 12
-47 0z"/>
<path d="M2451 1101 c-28 -8 -40 -31 -16 -31 22 0 55 18 55 30 0 11 -4 11 -39
1z"/>
<path d="M2780 876 c-13 -34 -13 -46 0 -46 18 0 35 49 22 62 -8 8 -14 4 -22
-16z"/>
<path d="M6200 7149 c-13 -6 -39 -21 -57 -35 -64 -49 -6 -60 88 -18 63 29 70
37 40 54 -24 12 -38 12 -71 -1z"/>
</g>
</svg>
