<?xml version="1.0" standalone="no"?>
<!DOCTYPE svg PUBLIC "-//W3C//DTD SVG 20010904//EN"
 "http://www.w3.org/TR/2001/REC-SVG-20010904/DTD/svg10.dtd">
<svg version="1.0" xmlns="http://www.w3.org/2000/svg"
 width="492.000000pt" height="1280.000000pt" viewBox="0 0 492.000000 1280.000000"
 preserveAspectRatio="xMidYMid meet">
<metadata>
Created by potrace 1.15, written by Peter Selinger 2001-2017
</metadata>
<g transform="translate(0.000000,1280.000000) scale(0.100000,-0.100000)"
fill="#e91e63" stroke="none">
<path d="M1275 12774 c-159 -18 -316 -74 -407 -145 -45 -37 -115 -134 -146
-204 -62 -142 -86 -391 -63 -642 29 -313 96 -427 318 -538 114 -57 173 -99
173 -125 0 -13 -21 -29 -73 -54 l-73 -36 -219 0 c-248 0 -277 -7 -333 -78 -60
-77 -66 -96 -72 -260 l-5 -153 -54 -47 -54 -48 6 -109 c6 -124 20 -171 96
-327 47 -99 50 -108 56 -213 7 -110 17 -160 55 -290 17 -58 20 -97 20 -235 0
-187 -12 -284 -39 -338 -10 -20 -60 -87 -109 -147 -89 -108 -185 -277 -240
-420 -30 -77 -50 -206 -57 -360 -3 -77 -12 -203 -20 -280 -40 -412 -25 -828
41 -1125 21 -93 61 -255 74 -295 123 -390 134 -417 242 -603 54 -92 72 -135
96 -230 14 -54 14 -79 4 -190 -6 -70 -18 -158 -26 -197 -56 -264 -37 -584 51
-855 23 -72 53 -201 73 -320 10 -54 25 -132 55 -275 8 -38 24 -117 35 -175 20
-101 33 -169 66 -330 8 -41 22 -111 30 -155 9 -44 21 -109 28 -145 7 -36 19
-94 26 -130 6 -36 18 -92 25 -125 44 -199 57 -319 51 -460 -13 -289 -46 -478
-111 -640 -43 -105 -80 -165 -103 -165 -25 0 -62 -28 -62 -47 0 -23 53 -86 99
-118 72 -49 51 -90 -66 -131 -58 -21 -87 -24 -198 -24 -72 0 -136 4 -143 9 -8
5 -12 17 -10 27 3 17 14 19 118 19 105 0 119 2 158 25 46 27 60 53 42 75 -10
12 -51 15 -218 15 l-206 0 -71 -35 c-83 -40 -110 -67 -119 -117 -8 -45 4 -59
75 -80 131 -41 197 -51 367 -55 153 -5 184 -3 255 15 45 12 125 31 177 43 52
12 117 28 144 35 111 31 117 11 31 -96 -36 -45 -87 -113 -112 -151 l-47 -70
30 -56 c41 -79 69 -97 152 -98 l67 0 5 -140 c3 -78 10 -149 17 -160 20 -36
130 -134 158 -141 36 -9 148 3 212 23 34 11 94 47 170 104 65 49 132 96 149
105 31 17 33 17 59 -4 34 -27 46 -27 76 -3 13 10 33 20 43 22 11 2 21 10 24
17 5 16 -32 16 -58 0 -17 -11 -28 -8 -75 17 -60 32 -63 41 -40 113 7 20 4 22
-23 22 -17 0 -47 -8 -67 -17 -22 -10 -39 -13 -44 -7 -5 5 -13 41 -16 80 l-7
71 33 23 c80 55 120 112 66 95 -12 -4 -39 -9 -60 -12 l-38 -5 3 128 c3 109 5
128 18 124 8 -3 177 -7 375 -11 376 -5 386 -6 585 -60 61 -16 90 -44 90 -87 0
-52 31 -86 102 -113 60 -23 74 -24 298 -23 215 1 246 3 360 27 116 25 185 43
315 83 28 9 70 22 95 29 87 26 256 86 329 117 72 31 75 31 143 20 39 -7 75
-15 81 -19 16 -10 -20 -20 -83 -22 -45 -1 -59 -6 -77 -27 -30 -33 -29 -60 2
-80 20 -13 40 -15 107 -9 128 10 244 32 286 54 49 25 102 85 102 115 0 31 -90
114 -157 146 -150 71 -446 78 -643 15 -138 -45 -189 -55 -304 -61 -68 -4 -134
-4 -148 -1 -26 7 -41 37 -31 63 8 22 62 46 88 40 31 -8 122 12 128 27 8 21
-10 51 -69 116 l-58 63 22 37 c70 117 75 137 69 243 -6 96 -8 102 -48 161 -23
34 -57 81 -75 104 -45 55 -150 123 -190 123 -26 0 -45 14 -116 88 -47 49 -94
102 -104 118 -10 16 -83 116 -161 221 -173 235 -319 477 -582 966 -63 116
-221 431 -265 527 -21 47 -51 112 -67 145 -85 185 -209 508 -264 685 -15 47
-31 96 -37 110 -10 25 -19 55 -59 200 -52 191 -69 271 -80 396 -14 152 -3 271
33 359 11 27 35 86 53 130 38 92 98 246 113 290 6 17 27 75 47 130 164 448
212 637 235 915 35 419 -7 759 -130 1035 -76 171 -149 360 -175 452 -28 98 -8
286 45 407 21 51 90 161 190 306 36 52 75 112 85 133 27 51 55 47 72 -8 17
-58 48 -219 73 -380 12 -77 26 -156 32 -175 19 -59 28 -156 37 -385 6 -157 14
-246 29 -310 11 -49 28 -133 37 -185 9 -52 25 -131 35 -175 10 -44 28 -123 40
-175 11 -52 27 -122 35 -155 16 -69 45 -211 75 -370 12 -60 27 -169 35 -242
14 -132 32 -188 83 -265 53 -80 152 -108 390 -108 184 0 199 6 146 61 -21 22
-25 32 -16 41 8 8 20 5 46 -13 45 -30 56 -59 53 -133 -2 -47 1 -60 16 -70 15
-9 22 -7 38 13 18 21 22 23 44 11 44 -24 55 -9 55 79 0 70 2 79 20 84 11 3 36
-4 57 -14 64 -33 90 -19 63 32 -24 44 -228 159 -283 159 -45 0 -278 96 -336
138 -67 49 -68 59 -75 527 -5 275 -12 453 -21 515 -29 198 -46 329 -55 433 -5
60 -12 112 -15 116 -9 15 -39 300 -60 571 -9 107 -21 260 -27 340 -6 80 -12
237 -13 350 -2 234 -19 510 -40 620 -7 41 -16 92 -20 113 -8 53 -39 102 -104
170 -101 105 -150 120 -363 107 -189 -12 -226 -5 -285 51 -112 109 -173 225
-173 327 0 38 5 53 23 70 13 12 28 22 33 22 5 0 33 21 62 46 62 55 110 133
143 234 21 67 23 93 23 235 -1 204 -21 282 -99 400 -104 155 -276 330 -373
378 -98 49 -255 74 -377 61z m584 -11693 c20 -13 7 -27 -31 -35 -18 -3 -42
-16 -55 -28 -19 -18 -23 -19 -29 -5 -3 8 -4 26 -2 39 3 22 13 26 93 36 6 1 16
-2 24 -7z"/>
</g>
</svg>
